<svg width="147" height="151" viewBox="0 0 147 151" fill="none" xmlns="http://www.w3.org/2000/svg">
<path d="M71.8135 128.741C107.609 128.741 136.627 99.9212 136.627 64.3704C136.627 28.8196 107.609 0 71.8135 0C36.018 0 7 28.8196 7 64.3704C7 99.9212 36.018 128.741 71.8135 128.741Z" fill="url(#paint0_linear_78_371)"/>
<path d="M112.996 27.0129H41.1959C36.7205 27.0129 33.0925 30.6161 33.0925 35.0609H121.099C121.099 30.6161 117.471 27.0129 112.996 27.0129Z" fill="url(#paint1_linear_78_371)"/>
<path d="M33.0925 34.841H121.099V101.41C121.099 104.37 119.915 107.208 117.808 109.301C115.701 111.394 112.843 112.57 109.863 112.57H44.3289C41.3488 112.57 38.4908 111.394 36.3836 109.301C34.2764 107.208 33.0925 104.37 33.0925 101.41V34.841Z" fill="url(#paint2_linear_78_371)"/>
<path d="M105.971 43.2492H48.2489C47.0468 43.2492 46.0723 44.216 46.0723 45.4086C46.0723 46.6012 47.0468 47.568 48.2489 47.568H105.971C107.173 47.568 108.148 46.6012 108.148 45.4086C108.148 44.216 107.173 43.2492 105.971 43.2492Z" fill="url(#paint3_linear_78_371)"/>
<path d="M105.971 61.5981H48.2489C47.0468 61.5981 46.0723 62.5648 46.0723 63.7574C46.0723 64.95 47.0468 65.9168 48.2489 65.9168H105.971C107.173 65.9168 108.148 64.95 108.148 63.7574C108.148 62.5648 107.173 61.5981 105.971 61.5981Z" fill="url(#paint4_linear_78_371)"/>
<path d="M105.971 79.9469H48.2489C47.0468 79.9469 46.0723 80.9137 46.0723 82.1063C46.0723 83.2989 47.0468 84.2656 48.2489 84.2656H105.971C107.173 84.2656 108.148 83.2989 108.148 82.1063C108.148 80.9137 107.173 79.9469 105.971 79.9469Z" fill="url(#paint5_linear_78_371)"/>
<path d="M105.971 98.2955H48.2489C47.0468 98.2955 46.0723 99.2623 46.0723 100.455C46.0723 101.648 47.0468 102.614 48.2489 102.614H105.971C107.173 102.614 108.148 101.648 108.148 100.455C108.148 99.2623 107.173 98.2955 105.971 98.2955Z" fill="url(#paint6_linear_78_371)"/>
<g filter="url(#filter0_d_78_371)">
<path d="M47.8579 76.0112H17.1216C14.6524 76.0112 12.6506 77.9992 12.6506 80.4516V124.084C12.6506 126.536 14.6524 128.524 17.1216 128.524H47.8579C50.3272 128.524 52.3289 126.536 52.3289 124.084V80.4516C52.3289 77.9992 50.3272 76.0112 47.8579 76.0112Z" fill="url(#paint7_linear_78_371)"/>
</g>
<path d="M44.4279 97.839H20.5512C19.7472 97.839 19.0955 98.4863 19.0955 99.2848V99.2895C19.0955 100.088 19.7472 100.735 20.5512 100.735H44.4279C45.2319 100.735 45.8837 100.088 45.8837 99.2895V99.2848C45.8837 98.4863 45.2319 97.839 44.4279 97.839Z" fill="url(#paint8_linear_78_371)"/>
<path d="M44.4416 118.219H20.7701C19.973 118.219 19.3268 118.846 19.3268 119.62V119.624C19.3268 120.398 19.973 121.025 20.7701 121.025H44.4416C45.2387 121.025 45.8848 120.398 45.8848 119.624V119.62C45.8848 118.846 45.2387 118.219 44.4416 118.219Z" fill="url(#paint9_linear_78_371)"/>
<path d="M44.4416 107.556H20.7701C19.973 107.556 19.3268 108.183 19.3268 108.957V108.961C19.3268 109.735 19.973 110.362 20.7701 110.362H44.4416C45.2387 110.362 45.8848 109.735 45.8848 108.961V108.957C45.8848 108.183 45.2387 107.556 44.4416 107.556Z" fill="url(#paint10_linear_78_371)"/>
<path d="M29.2815 82.7491H22.3041C20.7585 82.7491 19.5056 83.9934 19.5056 85.5284V87.4515C19.5056 88.9865 20.7585 90.2309 22.3041 90.2309H29.2815C30.8271 90.2309 32.08 88.9865 32.08 87.4515V85.5284C32.08 83.9934 30.8271 82.7491 29.2815 82.7491Z" fill="url(#paint11_linear_78_371)"/>
<path d="M71.6719 124.694C72.184 122.587 75.183 122.587 75.6951 124.694C75.8773 125.444 76.464 126.029 77.2142 126.209C79.3169 126.713 79.3169 129.705 77.2142 130.209C76.464 130.389 75.8773 130.974 75.6951 131.724C75.183 133.831 72.184 133.831 71.6719 131.724C71.4897 130.974 70.903 130.389 70.1528 130.209C68.0501 129.705 68.0501 126.713 70.1528 126.209C70.903 126.029 71.4897 125.444 71.6719 124.694Z" fill="url(#paint12_linear_78_371)"/>
<path d="M24.7715 16.9432C25.2836 14.8365 28.2826 14.8365 28.7947 16.9432C28.9769 17.6928 29.5636 18.2784 30.3138 18.4582C32.4165 18.9623 32.4165 21.9538 30.3138 22.4579C29.5636 22.6378 28.9769 23.2233 28.7947 23.9729C28.2826 26.0796 25.2836 26.0796 24.7715 23.9729C24.5893 23.2233 24.0027 22.6378 23.2524 22.4579C21.1497 21.9538 21.1497 18.9623 23.2524 18.4582C24.0027 18.2784 24.5893 17.6928 24.7715 16.9432Z" fill="url(#paint13_linear_78_371)"/>
<path fill-rule="evenodd" clip-rule="evenodd" d="M75.445 14.0712C76.5378 14.0712 77.4237 13.1914 77.4237 12.1061C77.4237 11.0207 76.5378 10.1409 75.445 10.1409C74.3522 10.1409 73.4663 11.0207 73.4663 12.1061C73.4663 13.1914 74.3522 14.0712 75.445 14.0712ZM75.445 15.5451C77.3574 15.5451 78.9078 14.0054 78.9078 12.1061C78.9078 10.2067 77.3574 8.66699 75.445 8.66699C73.5326 8.66699 71.9823 10.2067 71.9823 12.1061C71.9823 14.0054 73.5326 15.5451 75.445 15.5451Z" fill="url(#paint14_linear_78_371)"/>
<path d="M137.301 69.4632C136.967 68.1618 138.177 66.9893 139.479 67.3526L141.868 68.0195C143.17 68.383 143.588 70.01 142.62 70.9481L140.844 72.6699C139.876 73.6081 138.249 73.1536 137.914 71.852L137.301 69.4632Z" fill="url(#paint15_linear_78_371)"/>
<path d="M19.6753 60.0713C20.9863 59.7411 22.1658 60.9444 21.7982 62.2371L21.1236 64.6094C20.7561 65.9019 19.1175 66.3144 18.1741 65.3519L16.4428 63.5855C15.4994 62.623 15.9586 61.0074 17.2694 60.6772L19.6753 60.0713Z" fill="url(#paint16_linear_78_371)"/>
<path d="M114.041 127.977C115.352 127.647 116.532 128.85 116.164 130.143L115.489 132.515C115.122 133.808 113.483 134.22 112.54 133.257L110.809 131.491C109.865 130.529 110.324 128.913 111.635 128.583L114.041 127.977Z" fill="url(#paint17_linear_78_371)"/>
<path fill-rule="evenodd" clip-rule="evenodd" d="M141.558 42.6925C142.651 42.6925 143.536 41.8127 143.536 40.7273C143.536 39.642 142.651 38.7622 141.558 38.7622C140.465 38.7622 139.579 39.642 139.579 40.7273C139.579 41.8127 140.465 42.6925 141.558 42.6925ZM141.558 44.1664C143.47 44.1664 145.02 42.6267 145.02 40.7273C145.02 38.828 143.47 37.2883 141.558 37.2883C139.645 37.2883 138.095 38.828 138.095 40.7273C138.095 42.6267 139.645 44.1664 141.558 44.1664Z" fill="url(#paint18_linear_78_371)"/>
<defs>
<filter id="filter0_d_78_371" x="0.650635" y="68.0112" width="69.6783" height="82.5131" filterUnits="userSpaceOnUse" color-interpolation-filters="sRGB">
<feFlood flood-opacity="0" result="BackgroundImageFix"/>
<feColorMatrix in="SourceAlpha" type="matrix" values="0 0 0 0 0 0 0 0 0 0 0 0 0 0 0 0 0 0 127 0" result="hardAlpha"/>
<feOffset dx="3" dy="7"/>
<feGaussianBlur stdDeviation="7.5"/>
<feComposite in2="hardAlpha" operator="out"/>
<feColorMatrix type="matrix" values="0 0 0 0 0.991667 0 0 0 0 0.958611 0 0 0 0 0.961678 0 0 0 1 0"/>
<feBlend mode="normal" in2="BackgroundImageFix" result="effect1_dropShadow_78_371"/>
<feBlend mode="normal" in="SourceGraphic" in2="effect1_dropShadow_78_371" result="shape"/>
</filter>
<linearGradient id="paint0_linear_78_371" x1="71.3139" y1="-20.9606" x2="72.6235" y2="205.099" gradientUnits="userSpaceOnUse">
<stop stop-color="white" stop-opacity="0"/>
<stop offset="1" stop-color="#FFE0E3"/>
</linearGradient>
<linearGradient id="paint1_linear_78_371" x1="32.9929" y1="28.8702" x2="121.137" y2="35.1283" gradientUnits="userSpaceOnUse">
<stop stop-color="#F5949D"/>
<stop offset="1" stop-color="#FFECEE"/>
</linearGradient>
<linearGradient id="paint2_linear_78_371" x1="30.4501" y1="93.1279" x2="157.589" y2="95.4037" gradientUnits="userSpaceOnUse">
<stop stop-color="white"/>
<stop offset="1" stop-color="#FFECEE"/>
</linearGradient>
<linearGradient id="paint3_linear_78_371" x1="43.4468" y1="47.3899" x2="111.82" y2="47.3899" gradientUnits="userSpaceOnUse">
<stop stop-color="#F5949D"/>
<stop offset="1" stop-color="#D9D5EF" stop-opacity="0"/>
</linearGradient>
<linearGradient id="paint4_linear_78_371" x1="43.4468" y1="65.7387" x2="111.82" y2="65.7387" gradientUnits="userSpaceOnUse">
<stop stop-color="#F5949D"/>
<stop offset="1" stop-color="#D9D5EF" stop-opacity="0"/>
</linearGradient>
<linearGradient id="paint5_linear_78_371" x1="43.4468" y1="84.0875" x2="111.82" y2="84.0875" gradientUnits="userSpaceOnUse">
<stop stop-color="#F5949D"/>
<stop offset="1" stop-color="#D9D5EF" stop-opacity="0"/>
</linearGradient>
<linearGradient id="paint6_linear_78_371" x1="43.4468" y1="102.436" x2="111.82" y2="102.436" gradientUnits="userSpaceOnUse">
<stop stop-color="#F5949D"/>
<stop offset="1" stop-color="#D9D5EF" stop-opacity="0"/>
</linearGradient>
<linearGradient id="paint7_linear_78_371" x1="11.4593" y1="115.39" x2="87.5024" y2="121.678" gradientUnits="userSpaceOnUse">
<stop stop-color="white"/>
<stop offset="1" stop-color="#FFECEE"/>
</linearGradient>
<linearGradient id="paint8_linear_78_371" x1="48.9926" y1="100.822" x2="16.7839" y2="100.822" gradientUnits="userSpaceOnUse">
<stop stop-color="#FFECEE"/>
<stop offset="1" stop-color="#F5949D"/>
</linearGradient>
<linearGradient id="paint9_linear_78_371" x1="48.967" y1="121.109" x2="17.0351" y2="121.109" gradientUnits="userSpaceOnUse">
<stop stop-color="#FFECEE"/>
<stop offset="1" stop-color="#F5949D"/>
</linearGradient>
<linearGradient id="paint10_linear_78_371" x1="48.967" y1="110.446" x2="17.0351" y2="110.446" gradientUnits="userSpaceOnUse">
<stop stop-color="#FFECEE"/>
<stop offset="1" stop-color="#F5949D"/>
</linearGradient>
<linearGradient id="paint11_linear_78_371" x1="40.7993" y1="90.1589" x2="17.9142" y2="90.1589" gradientUnits="userSpaceOnUse">
<stop offset="0.243799" stop-color="#FFECEE"/>
<stop offset="1" stop-color="#F5949D"/>
</linearGradient>
<linearGradient id="paint12_linear_78_371" x1="61.7844" y1="121.86" x2="85.6848" y2="122.017" gradientUnits="userSpaceOnUse">
<stop stop-color="#4D419A"/>
<stop offset="1" stop-color="#F5949D"/>
</linearGradient>
<linearGradient id="paint13_linear_78_371" x1="14.884" y1="14.1094" x2="38.7844" y2="14.2657" gradientUnits="userSpaceOnUse">
<stop stop-color="#4D419A"/>
<stop offset="1" stop-color="#F5949D"/>
</linearGradient>
<linearGradient id="paint14_linear_78_371" x1="71.9745" y1="10.2544" x2="78.9454" y2="10.2999" gradientUnits="userSpaceOnUse">
<stop stop-color="#4D419A"/>
<stop offset="1" stop-color="#F5949D"/>
</linearGradient>
<linearGradient id="paint15_linear_78_371" x1="134.596" y1="71.5973" x2="141.721" y2="64.6863" gradientUnits="userSpaceOnUse">
<stop stop-color="#4D419A"/>
<stop offset="1" stop-color="#F5949D"/>
</linearGradient>
<linearGradient id="paint16_linear_78_371" x1="17.5309" y1="57.3817" x2="24.3818" y2="64.5605" gradientUnits="userSpaceOnUse">
<stop stop-color="#4D419A"/>
<stop offset="1" stop-color="#F5949D"/>
</linearGradient>
<linearGradient id="paint17_linear_78_371" x1="111.897" y1="125.287" x2="118.748" y2="132.466" gradientUnits="userSpaceOnUse">
<stop stop-color="#4D419A"/>
<stop offset="1" stop-color="#F5949D"/>
</linearGradient>
<linearGradient id="paint18_linear_78_371" x1="138.087" y1="38.8756" x2="145.058" y2="38.9212" gradientUnits="userSpaceOnUse">
<stop stop-color="#4D419A"/>
<stop offset="1" stop-color="#F5949D"/>
</linearGradient>
</defs>
</svg>
